<?xml version="1.0" standalone="no"?>
<!DOCTYPE svg PUBLIC "-//W3C//DTD SVG 20010904//EN"
 "http://www.w3.org/TR/2001/REC-SVG-20010904/DTD/svg10.dtd">
<svg version="1.0" xmlns="http://www.w3.org/2000/svg"
 width="192.000000pt" height="149.000000pt" viewBox="0 0 192.000000 149.000000"
 preserveAspectRatio="xMidYMid meet">
<g transform="translate(0.000000,149.000000) scale(0.100000,-0.100000)"
fill="#000000" stroke="none">
<path d="M894 1403 c-31 -43 -74 -115 -96 -160 l-40 -82 38 -33 c20 -18 41
-33 45 -33 5 0 30 31 56 69 26 38 53 71 60 73 6 3 35 -29 63 -69 28 -40 55
-73 59 -73 4 0 24 15 45 33 l37 33 -39 82 c-40 82 -146 237 -162 237 -5 0 -34
-35 -66 -77z"/>
<path d="M293 1173 c4 -54 14 -125 23 -158 22 -84 79 -189 136 -249 l47 -51 1
81 c0 44 3 84 7 87 3 4 17 0 30 -8 13 -8 33 -22 46 -30 l22 -14 -3 107 -4 107
-36 38 c-63 66 -235 187 -265 187 -6 0 -8 -37 -4 -97z"/>
<path d="M1554 1234 c-75 -45 -149 -102 -196 -151 l-36 -38 -4 -107 -3 -107
22 14 c13 8 33 22 46 30 13 8 27 12 30 8 4 -3 7 -43 7 -87 l1 -81 47 51 c57
60 114 165 136 249 20 72 33 255 19 255 -5 0 -36 -16 -69 -36z"/>
<path d="M655 1080 c-24 -98 -18 -209 16 -275 14 -27 30 -48 35 -46 5 1 25 49
45 105 20 55 42 115 49 132 13 30 12 34 -14 65 -28 33 -95 88 -107 89 -4 0
-15 -31 -24 -70z"/>
<path d="M1199 1122 c-20 -15 -49 -42 -65 -61 -26 -31 -27 -35 -14 -65 7 -17
29 -78 50 -136 21 -58 41 -104 46 -104 23 4 58 102 62 176 4 73 -20 218 -37
218 -3 0 -22 -13 -42 -28z"/>
<path d="M915 1073 c-72 -97 -135 -263 -135 -355 0 -122 145 -207 258 -149 46
23 67 46 87 94 19 46 19 75 -1 156 -26 108 -132 301 -164 301 -5 0 -26 -21
-45 -47z"/>
<path d="M540 768 c0 -98 63 -212 142 -257 57 -33 139 -42 179 -20 18 9 15 13
-32 36 -54 27 -102 87 -114 143 -5 21 -16 32 -49 44 -24 9 -62 32 -84 52 l-42
36 0 -34z"/>
<path d="M1336 764 c-21 -18 -58 -41 -82 -50 -33 -13 -44 -23 -49 -44 -12 -54
-63 -117 -116 -144 -46 -22 -48 -26 -30 -35 40 -22 122 -13 179 20 80 45 149
173 140 258 l-3 29 -39 -34z"/>
<path d="M187 762 c-16 -7 -14 -14 23 -71 116 -179 262 -272 424 -270 39 1 82
4 96 9 24 7 23 8 -23 28 -111 49 -196 123 -262 226 -26 42 -42 54 -81 69 -49
17 -143 22 -177 9z"/>
<path d="M1552 752 c-35 -13 -52 -30 -88 -84 -57 -86 -129 -148 -224 -195 -67
-33 -72 -38 -50 -44 14 -4 57 -7 96 -8 162 -2 308 91 424 270 37 57 39 64 23
71 -33 12 -137 7 -181 -10z"/>
<path d="M258 500 c-104 -18 -241 -77 -242 -105 -2 -19 186 -67 287 -72 109
-6 166 8 207 52 l23 25 -34 0 c-40 0 -128 48 -157 85 -11 14 -24 24 -28 24 -5
-1 -30 -5 -56 -9z"/>
<path d="M1577 485 c-26 -36 -116 -85 -156 -85 l-34 0 23 -25 c41 -44 98 -58
207 -52 101 5 289 53 287 72 -1 30 -159 94 -264 109 -40 5 -47 3 -63 -19z"/>
<path d="M883 454 c-94 -46 -81 -203 30 -381 21 -35 43 -63 47 -63 15 0 98
144 119 207 38 114 21 206 -44 237 -42 20 -111 20 -152 0z"/>
<path d="M742 398 c-19 -12 -58 -22 -95 -25 -74 -7 -105 -21 -142 -65 -25 -29
-85 -146 -85 -164 0 -13 131 7 187 28 96 35 199 151 191 214 -4 35 -15 37 -56
12z"/>
<path d="M1127 413 c-15 -15 -5 -62 21 -104 63 -98 156 -152 286 -165 37 -4
66 -4 66 0 0 18 -60 135 -85 164 -37 44 -68 58 -143 65 -37 3 -77 14 -98 26
-40 24 -38 23 -47 14z"/>
</g>
</svg>
